<?xml version="1.0" encoding="UTF-8" standalone="no"?>
<!-- Created with Inkscape (http://www.inkscape.org/) -->

<svg
   xmlns:dc="http://purl.org/dc/elements/1.1/"
   xmlns:cc="http://creativecommons.org/ns#"
   xmlns:rdf="http://www.w3.org/1999/02/22-rdf-syntax-ns#"
   xmlns:svg="http://www.w3.org/2000/svg"
   xmlns="http://www.w3.org/2000/svg"
   xmlns:sodipodi="http://sodipodi.sourceforge.net/DTD/sodipodi-0.dtd"
   xmlns:inkscape="http://www.inkscape.org/namespaces/inkscape"
   width="11.90624mm"
   height="11.90625mm"
   viewBox="0 0 11.90624 11.90625"
   version="1.1"
   id="svg1069"
   inkscape:version="0.92.4 (5da689c313, 2019-01-14)"
   sodipodi:docname="add-red.svg">
  <defs
     id="defs1063" />
  <sodipodi:namedview
     id="base"
     pagecolor="#ffffff"
     bordercolor="#666666"
     borderopacity="1.0"
     inkscape:pageopacity="0.0"
     inkscape:pageshadow="2"
     inkscape:zoom="0.7"
     inkscape:cx="-381.50893"
     inkscape:cy="124.02717"
     inkscape:document-units="mm"
     inkscape:current-layer="layer1"
     showgrid="false"
     fit-margin-top="0"
     fit-margin-left="0"
     fit-margin-right="0"
     fit-margin-bottom="0"
     inkscape:window-width="1920"
     inkscape:window-height="1017"
     inkscape:window-x="0"
     inkscape:window-y="27"
     inkscape:window-maximized="1" />
  <metadata
     id="metadata1066">
    <rdf:RDF>
      <cc:Work
         rdf:about="">
        <dc:format>image/svg+xml</dc:format>
        <dc:type
           rdf:resource="http://purl.org/dc/dcmitype/StillImage" />
        <dc:title></dc:title>
      </cc:Work>
    </rdf:RDF>
  </metadata>
  <g
     inkscape:label="Layer 1"
     inkscape:groupmode="layer"
     id="layer1"
     transform="translate(219.42828,-81.167125)">
    <path
       style="fill:#e43f5a;fill-opacity:1;stroke:none;stroke-width:0.75126868;stroke-linecap:round;stroke-miterlimit:4;stroke-dasharray:none;stroke-opacity:1"
       d="m -213.47516,93.073375 c 0.54965,0 0.99216,-0.442508 0.99216,-0.992198 v -3.968708 l 3.9688,-1.4e-5 c 0.54966,1.4e-5 0.99216,-0.442522 0.99216,-0.992198 0,-0.549649 -0.4425,-0.99217 -0.99216,-0.99217 h -3.96882 l 2e-5,-3.968764 c 0,-0.549676 -0.44251,-0.992198 -0.99216,-0.992198 -0.54965,0 -0.99216,0.442522 -0.99216,0.992198 v 3.968764 h -3.9688 c -0.54968,0 -0.99216,0.442521 -0.99216,0.99217 0,0.549676 0.44249,0.992212 0.99216,0.992198 l 3.9688,1.4e-5 v 3.968708 c 0,0.54969 0.44251,0.992198 0.99216,0.992198 z"
       id="path4113"
       inkscape:connector-curvature="0" />
  </g>
</svg>
