<?xml version="1.0" encoding="UTF-8" standalone="no"?>
<!-- Created with Inkscape (http://www.inkscape.org/) -->

<svg
   xmlns:dc="http://purl.org/dc/elements/1.1/"
   xmlns:cc="http://creativecommons.org/ns#"
   xmlns:rdf="http://www.w3.org/1999/02/22-rdf-syntax-ns#"
   xmlns:svg="http://www.w3.org/2000/svg"
   xmlns="http://www.w3.org/2000/svg"
   xmlns:sodipodi="http://sodipodi.sourceforge.net/DTD/sodipodi-0.dtd"
   xmlns:inkscape="http://www.inkscape.org/namespaces/inkscape"
   width="45mm"
   height="45mm"
   viewBox="0 0 45 45"
   version="1.1"
   id="svg1069"
   inkscape:version="0.92.4 (5da689c313, 2019-01-14)"
   sodipodi:docname="add-red.svg">
  <defs
     id="defs1063" />
  <sodipodi:namedview
     id="base"
     pagecolor="#ffffff"
     bordercolor="#666666"
     borderopacity="1.0"
     inkscape:pageopacity="0.0"
     inkscape:pageshadow="2"
     inkscape:zoom="0.7"
     inkscape:cx="-101.50893"
     inkscape:cy="124.02707"
     inkscape:document-units="mm"
     inkscape:current-layer="layer1"
     showgrid="false"
     fit-margin-top="0"
     fit-margin-left="0"
     fit-margin-right="0"
     fit-margin-bottom="0"
     inkscape:window-width="1920"
     inkscape:window-height="1017"
     inkscape:window-x="0"
     inkscape:window-y="27"
     inkscape:window-maximized="1" />
  <metadata
     id="metadata1066">
    <rdf:RDF>
      <cc:Work
         rdf:about="">
        <dc:format>image/svg+xml</dc:format>
        <dc:type
           rdf:resource="http://purl.org/dc/dcmitype/StillImage" />
        <dc:title></dc:title>
      </cc:Work>
    </rdf:RDF>
  </metadata>
  <g
     inkscape:label="Layer 1"
     inkscape:groupmode="layer"
     id="layer1"
     transform="translate(219.42828,-48.073349)">
    <path
       style="fill:#e43f5a;fill-opacity:1;stroke:none;stroke-width:2.83944392;stroke-linecap:round;stroke-miterlimit:4;stroke-dasharray:none;stroke-opacity:1"
       d="m -196.92828,93.073375 c 2.07741,0 3.74989,-1.672473 3.74989,-3.750044 v -14.99986 l 15.00022,-5.2e-5 c 2.07747,5.2e-5 3.74989,-1.672525 3.74989,-3.750044 0,-2.077414 -1.67242,-3.749939 -3.74989,-3.749939 h -15.00027 l 5e-5,-15.00007 c 0,-2.077518 -1.67248,-3.750043 -3.74989,-3.750043 -2.07741,0 -3.74989,1.672525 -3.74989,3.750043 v 15.00007 h -15.00022 c -2.07752,0 -3.74989,1.672525 -3.74989,3.749939 0,2.077519 1.67242,3.750096 3.74989,3.750044 l 15.00022,5.2e-5 v 14.99986 c 0,2.077571 1.67248,3.750044 3.74989,3.750044 z"
       id="path4113"
       inkscape:connector-curvature="0" />
  </g>
</svg>
