<?xml version="1.0" encoding="UTF-8" standalone="no"?>
<!-- Created with Inkscape (http://www.inkscape.org/) -->

<svg
   xmlns:dc="http://purl.org/dc/elements/1.1/"
   xmlns:cc="http://creativecommons.org/ns#"
   xmlns:rdf="http://www.w3.org/1999/02/22-rdf-syntax-ns#"
   xmlns:svg="http://www.w3.org/2000/svg"
   xmlns="http://www.w3.org/2000/svg"
   xmlns:sodipodi="http://sodipodi.sourceforge.net/DTD/sodipodi-0.dtd"
   xmlns:inkscape="http://www.inkscape.org/namespaces/inkscape"
   width="11.90625mm"
   height="11.90625mm"
   viewBox="0 0 11.90625 11.90625"
   version="1.1"
   id="svg1069"
   inkscape:version="0.92.4 (5da689c313, 2019-01-14)"
   sodipodi:docname="eye-open.svg">
  <defs
     id="defs1063" />
  <sodipodi:namedview
     id="base"
     pagecolor="#ffffff"
     bordercolor="#666666"
     borderopacity="1.0"
     inkscape:pageopacity="0.0"
     inkscape:pageshadow="2"
     inkscape:zoom="0.98994949"
     inkscape:cx="503.83239"
     inkscape:cy="-197.47073"
     inkscape:document-units="mm"
     inkscape:current-layer="layer1"
     showgrid="false"
     fit-margin-top="0"
     fit-margin-left="0"
     fit-margin-right="0"
     fit-margin-bottom="0"
     inkscape:window-width="1920"
     inkscape:window-height="1017"
     inkscape:window-x="0"
     inkscape:window-y="27"
     inkscape:window-maximized="1" />
  <metadata
     id="metadata1066">
    <rdf:RDF>
      <cc:Work
         rdf:about="">
        <dc:format>image/svg+xml</dc:format>
        <dc:type
           rdf:resource="http://purl.org/dc/dcmitype/StillImage" />
        <dc:title></dc:title>
      </cc:Work>
    </rdf:RDF>
  </metadata>
  <g
     inkscape:label="Layer 1"
     inkscape:groupmode="layer"
     id="layer1"
     transform="translate(338.89777,-37.067627)">
    <path
       style="fill:#bccada;fill-opacity:1;stroke-width:0.54119331"
       inkscape:connector-curvature="0"
       d="m -332.94466,41.397176 a 1.6235796,1.6235796 0 0 1 1.62358,1.623581 1.6235796,1.6235796 0 0 1 -1.62358,1.623581 1.6235796,1.6235796 0 0 1 -1.62357,-1.623581 1.6235796,1.6235796 0 0 1 1.62357,-1.623581 m 0,-2.435376 c 2.70596,0 5.01686,1.683121 5.95314,4.058957 -0.93628,2.375836 -3.24718,4.058947 -5.95314,4.058947 -2.70596,0 -5.01687,-1.683111 -5.95311,-4.058947 0.93624,-2.375836 3.24715,-4.058957 5.95311,-4.058957 m -4.77331,4.058957 c 0.89294,1.818414 2.73843,2.976566 4.77331,2.976566 2.03489,0 3.88034,-1.158152 4.77333,-2.976566 -0.89299,-1.818404 -2.73844,-2.976566 -4.77333,-2.976566 -2.03488,0 -3.88037,1.158162 -4.77331,2.976566 z"
       id="path2269-2" />
  </g>
</svg>
