<?xml version="1.0" encoding="UTF-8" standalone="no"?>
<!-- Created with Inkscape (http://www.inkscape.org/) -->

<svg
   xmlns:dc="http://purl.org/dc/elements/1.1/"
   xmlns:cc="http://creativecommons.org/ns#"
   xmlns:rdf="http://www.w3.org/1999/02/22-rdf-syntax-ns#"
   xmlns:svg="http://www.w3.org/2000/svg"
   xmlns="http://www.w3.org/2000/svg"
   xmlns:sodipodi="http://sodipodi.sourceforge.net/DTD/sodipodi-0.dtd"
   xmlns:inkscape="http://www.inkscape.org/namespaces/inkscape"
   width="11.90625mm"
   height="11.90625mm"
   viewBox="0 0 11.90625 11.90625"
   version="1.1"
   id="svg1069"
   inkscape:version="0.92.4 (5da689c313, 2019-01-14)"
   sodipodi:docname="eye-closed.svg">
  <defs
     id="defs1063" />
  <sodipodi:namedview
     id="base"
     pagecolor="#ffffff"
     bordercolor="#666666"
     borderopacity="1.0"
     inkscape:pageopacity="0.0"
     inkscape:pageshadow="2"
     inkscape:zoom="3.959798"
     inkscape:cx="84.470571"
     inkscape:cy="-7.7224656"
     inkscape:document-units="mm"
     inkscape:current-layer="layer1"
     showgrid="false"
     fit-margin-top="0"
     fit-margin-left="0"
     fit-margin-right="0"
     fit-margin-bottom="0"
     inkscape:window-width="1920"
     inkscape:window-height="1017"
     inkscape:window-x="0"
     inkscape:window-y="27"
     inkscape:window-maximized="1" />
  <metadata
     id="metadata1066">
    <rdf:RDF>
      <cc:Work
         rdf:about="">
        <dc:format>image/svg+xml</dc:format>
        <dc:type
           rdf:resource="http://purl.org/dc/dcmitype/StillImage" />
        <dc:title></dc:title>
      </cc:Work>
    </rdf:RDF>
  </metadata>
  <g
     inkscape:label="Layer 1"
     inkscape:groupmode="layer"
     id="layer1"
     transform="translate(278.49484,-69.407242)">
    <path
       style="fill:#bccada;fill-opacity:1;stroke-width:0.54119819"
       inkscape:connector-curvature="0"
       d="m -277.95365,71.176898 0.69272,-0.687311 9.04885,9.048827 -0.68734,0.692733 -1.66685,-1.666884 c -0.62241,0.205673 -1.28267,0.313899 -1.9754,0.313899 -2.70598,0 -5.01691,-1.683124 -5.95317,-4.058983 0.3734,-0.952514 0.96873,-1.791361 1.72643,-2.457035 l -1.18524,-1.185246 m 5.41198,2.018688 a 1.6235946,1.6235946 0 0 1 1.6236,1.623593 c 0,0.189413 -0.0325,0.373421 -0.0921,0.541188 l -2.07279,-2.072777 c 0.16773,-0.0595 0.35178,-0.09208 0.5412,-0.09208 m 0,-2.4354 c 2.70601,0 5.01692,1.683135 5.95317,4.058993 -0.44378,1.125686 -1.19602,2.099846 -2.16478,2.808801 l -0.76851,-0.7739 c 0.73604,-0.508735 1.34218,-1.20145 1.75349,-2.034901 -0.89298,-1.81842 -2.73845,-2.976588 -4.77337,-2.976588 -0.5899,0 -1.16897,0.09735 -1.71017,0.27059 l -0.83346,-0.828029 c 0.77931,-0.335535 1.63984,-0.524966 2.54362,-0.524966 m -4.77337,4.058993 c 0.89299,1.818429 2.73847,2.976598 4.77337,2.976598 0.37343,0 0.74146,-0.03785 1.0824,-0.113728 l -1.23394,-1.239335 c -0.7739,-0.08116 -1.39086,-0.698157 -1.47203,-1.472077 l -1.8401,-1.845488 c -0.53576,0.46003 -0.98497,1.033701 -1.3097,1.693972 z"
       id="path2280-4" />
  </g>
</svg>
