<?xml version="1.0" encoding="UTF-8" standalone="no"?>
<!-- Created with Inkscape (http://www.inkscape.org/) -->

<svg
   xmlns:dc="http://purl.org/dc/elements/1.1/"
   xmlns:cc="http://creativecommons.org/ns#"
   xmlns:rdf="http://www.w3.org/1999/02/22-rdf-syntax-ns#"
   xmlns:svg="http://www.w3.org/2000/svg"
   xmlns="http://www.w3.org/2000/svg"
   xmlns:sodipodi="http://sodipodi.sourceforge.net/DTD/sodipodi-0.dtd"
   xmlns:inkscape="http://www.inkscape.org/namespaces/inkscape"
   width="11.90625mm"
   height="11.90625mm"
   viewBox="0 0 11.90625 11.90625"
   version="1.1"
   id="svg1069"
   inkscape:version="0.92.4 (5da689c313, 2019-01-14)"
   sodipodi:docname="padlock-open.svg">
  <defs
     id="defs1063" />
  <sodipodi:namedview
     id="base"
     pagecolor="#ffffff"
     bordercolor="#666666"
     borderopacity="1.0"
     inkscape:pageopacity="0.0"
     inkscape:pageshadow="2"
     inkscape:zoom="0.98994949"
     inkscape:cx="509.89327"
     inkscape:cy="-223.7347"
     inkscape:document-units="mm"
     inkscape:current-layer="layer1"
     showgrid="false"
     fit-margin-top="0"
     fit-margin-left="0"
     fit-margin-right="0"
     fit-margin-bottom="0"
     inkscape:window-width="1920"
     inkscape:window-height="1017"
     inkscape:window-x="0"
     inkscape:window-y="27"
     inkscape:window-maximized="1" />
  <metadata
     id="metadata1066">
    <rdf:RDF>
      <cc:Work
         rdf:about="">
        <dc:format>image/svg+xml</dc:format>
        <dc:type
           rdf:resource="http://purl.org/dc/dcmitype/StillImage" />
        <dc:title></dc:title>
      </cc:Work>
    </rdf:RDF>
  </metadata>
  <g
     inkscape:label="Layer 1"
     inkscape:groupmode="layer"
     id="layer1"
     transform="translate(288.11655,-30.118618)">
    <g
       transform="matrix(0.03985957,0,0,0.03985957,-277.80838,49.767154)"
       id="g1425">
      <path
         sodipodi:nodetypes="cccczccccccccccccc"
         inkscape:connector-curvature="0"
         id="rect1061-6-0"
         transform="scale(0.26458333)"
         d="m -418.14648,-1863.0332 c -36.89663,0.8846 -72.98307,11.1702 -104.94532,29.9121 -68.15716,39.9649 -110.14401,113.8234 -110.14453,193.7539 v 138.457 c 0,0 -2.93334,39.0677 47.59082,39.0677 50.52416,0 47.59082,-39.0677 47.59082,-39.0677 v -142.9648 c -9.3e-4,-45.3949 23.84421,-87.3419 62.55274,-110.0391 18.15223,-10.6443 38.64683,-16.4859 59.60156,-16.9882 22.9566,-0.5504 45.6195,5.327 65.50586,16.9882 38.70703,22.6982 62.55056,64.645 62.54883,110.0391 v 144.9316 22.2481 131.709 h 95.18164 v -294.3809 c 2.8e-4,-79.9297 -41.98497,-153.788 -110.14063,-193.7539 -35.01578,-20.5324 -74.92021,-30.881 -115.34179,-29.9121 z"
         style="fill:#e43f5a;fill-opacity:1;stroke:none;stroke-width:338.78955078;stroke-linecap:round;stroke-miterlimit:4;stroke-dasharray:none;stroke-opacity:1" />
      <path
         id="path1126-2"
         d="m -109.25977,-382.47098 a 94.116071,94.116071 0 0 0 -94.11624,94.11622 94.116071,94.116071 0 0 0 94.11624,94.1157 94.116071,94.116071 0 0 0 94.116203,-94.1157 94.116071,94.116071 0 0 0 -94.116203,-94.11622 z m 0,56.96551 a 37.150463,37.150463 0 0 1 37.150698,37.15071 37.150463,37.150463 0 0 1 -37.150698,37.15018 37.150463,37.150463 0 0 1 -37.1502,-37.15018 37.150463,37.150463 0 0 1 37.1502,-37.15071 z"
         style="fill:#e43f5a;fill-opacity:1;stroke:none;stroke-width:47.03126907;stroke-linecap:round;stroke-miterlimit:4;stroke-dasharray:none;stroke-opacity:1"
         inkscape:connector-curvature="0" />
    </g>
  </g>
</svg>
